# xmcd
#
# Track frame offsets: 
#        150
#        14074
#        33101
#        47796
#        55228
#        65607
#        79071
#        88539
#        100321
#        108807
#        120185
#        131332
#        151002
#        167629
#        187333
#
# Disc length: 2711 seconds
#
# Revision: 8
# Processed by: cddbd v1.5.2PL0 Copyright (c) Steve Scherf et al.
# Submitted via: ExactAudioCopy v1.0b3
#
DISCID=b90a950f
DTITLE=Ночные Снайперы - Капля дёгтя
DYEAR=2002
DGENRE=Rock
TTITLE0=Nochnye snajpery - Russkij passazhir
TTITLE1=Nochnye snajpery - Awtomobil'nyj bliuz
TTITLE2=Nochnye snajpery - Tak nachinalsia den'
TTITLE3=Nochnye snajpery - jazz
TTITLE4=Nochnye snajpery - Tol'ko shum na reke
TTITLE5=Nochnye snajpery - Almaznyj britanets
TTITLE6=Nochnye snajpery - Zawoiuj menia
TTITLE7=Nochnye snajpery - Po wolnam twoix slioz
TTITLE8=Nochnye snajpery - Zowiot doroga
TTITLE9=Nochnye snajpery - Ia raskrashiwal nebo
TTITLE10=Nochnye snajpery - Up-tau-du
TTITLE11=Nochnye snajpery - Ona wypuskaet zmej
TTITLE12=Nochnye snajpery - Iaponskie lageria (antyremix)
TTITLE13=Nochnye snajpery - Po wolnam twoix slioz (coverversion)
TTITLE14=Nochnye snajpery - Nezawershionnost' wstrech (skripichnyj ehk
TTITLE14=zersis)
EXTD=YEAR: 1998
EXTT0=
EXTT1=
EXTT2=
EXTT3=
EXTT4=
EXTT5=
EXTT6=
EXTT7=
EXTT8=
EXTT9=
EXTT10=
EXTT11=
EXTT12=
EXTT13=
EXTT14=
PLAYORDER=
